<?xml version="1.0" standalone="no"?>
<svg xmlns="http://www.w3.org/2000/svg" viewBox="0 0 103.75999999999999 58.36" width="103.75999999999999" height="58.36"><rect fill="#000000" width="103.75999999999999" height="58.36" x="0" y="0"></rect><g fill="white" color="white" transform="translate(57.4 12) scale(0.3436)"><svg width="100.0" height="100.0" x="0.0" y="0.0" viewBox="0 0 100 100"><style type="text/css">
	.st0{fill:currentColor;}
</style><g><path class="st0" d="M12.8,50l22.8,9.1v7.1L4,53.7v-7.3l31.6-12.6v7.2L12.8,50z"></path><path class="st0" d="M62.2,26.8L44.9,73.2h-7l17.3-46.5H62.2z"></path><path class="st0" d="M87.2,50l-22.8-9.1v-7.2L96,46.4v7.3L64.4,66.2v-7.1L87.2,50z"></path></g></svg></g><path fill="white" fill-rule="nonzero" d="M14.20 34.36L0 34.36L0 0L13.76 0L13.76 6.64L7 6.64L7 13.32L13.48 13.32L13.48 19.80L7 19.80L7 27.68L14.20 27.68L14.20 34.36ZM26.32 34.36L19.44 34.36L19.44 6.60L15.36 6.60L15.36 0L30.40 0L30.40 6.60L26.32 6.60L26.32 34.36Z" transform="translate(12 12) scale(1)"></path></svg>